<svg width="29" height="16" fill="none" xmlns="http://www.w3.org/2000/svg"><path d="M27.895 14.45a1.94 1.94 0 00-.095-.183c-.487-.876-1.417-1.952-2.79-3.227l-.028-.029-.015-.014-.014-.015h-.015c-.623-.594-1.017-.993-1.183-1.197-.302-.39-.37-.784-.204-1.183.116-.302.555-.94 1.314-1.913.399-.516.715-.93.949-1.24 1.684-2.24 2.414-3.67 2.19-4.294l-.087-.145c-.059-.088-.21-.168-.452-.241-.244-.073-.555-.085-.935-.037l-4.205.03a.546.546 0 00-.292.007l-.19.044-.073.036-.058.044a.65.65 0 00-.161.153 1.001 1.001 0 00-.146.256 23.861 23.861 0 01-1.562 3.285 30.92 30.92 0 01-.993 1.57c-.302.443-.555.769-.76.978a5.3 5.3 0 01-.554.504c-.166.126-.292.18-.38.16l-.248-.058a.97.97 0 01-.329-.358 1.6 1.6 0 01-.168-.57 6.26 6.26 0 01-.05-.59c-.005-.166-.003-.4.007-.702.01-.302.014-.506.014-.613 0-.37.008-.771.022-1.205l.037-1.029c.01-.253.014-.52.014-.803a3.37 3.37 0 00-.05-.664 2.268 2.268 0 00-.154-.468.787.787 0 00-.3-.35 1.687 1.687 0 00-.488-.197c-.516-.117-1.173-.18-1.971-.19-1.811-.02-2.974.098-3.49.35-.205.108-.39.254-.555.439-.175.214-.2.33-.073.35.584.087.997.297 1.24.628l.089.175c.068.127.136.35.204.672.068.32.112.676.131 1.065.049.711.049 1.32 0 1.825-.048.507-.094.9-.138 1.183-.044.282-.11.511-.197.686a2.905 2.905 0 01-.176.322.252.252 0 01-.073.073 1.094 1.094 0 01-.394.073c-.136 0-.302-.069-.496-.205a3.503 3.503 0 01-.606-.562 7.514 7.514 0 01-.708-1 17.452 17.452 0 01-.818-1.519l-.234-.423c-.146-.273-.345-.67-.598-1.19a22.943 22.943 0 01-.672-1.511.962.962 0 00-.35-.468L5.505.921A1 1 0 005.27.797a1.55 1.55 0 00-.336-.094l-4 .029c-.41 0-.687.092-.833.277l-.058.088A.472.472 0 000 1.33c0 .107.03.239.088.395a48.187 48.187 0 001.905 3.971c.686 1.275 1.282 2.302 1.789 3.08a36.376 36.376 0 001.547 2.205 32.3 32.3 0 001.044 1.33c.17.194.304.34.402.437l.365.35c.234.234.577.514 1.03.84.452.326.953.647 1.503.964.55.316 1.19.574 1.92.774.73.2 1.44.28 2.132.24h1.68c.34-.029.598-.136.773-.32l.058-.074a.97.97 0 00.11-.27c.034-.121.05-.255.05-.401a4.81 4.81 0 01.095-1.132c.073-.335.156-.588.249-.759a1.867 1.867 0 01.562-.642.958.958 0 01.117-.051c.233-.078.508-.003.825.226.316.23.613.511.89.847.278.336.611.713 1 1.132.39.418.73.73 1.023.934l.292.175c.195.117.448.224.76.322.31.097.583.121.817.073l3.738-.059c.37 0 .657-.06.86-.182.205-.122.327-.256.366-.402a1.13 1.13 0 00.007-.497 1.833 1.833 0 00-.102-.386z" fill="#F13C6E"/></svg>