<svg width="189" height="100" fill="none" xmlns="http://www.w3.org/2000/svg"><path d="M39.849 73.984c-7.32 0-13.012 5.69-13.012 13.008 0 7.317 5.693 13.008 13.012 13.008 7.32 0 13.012-5.691 13.012-13.008 0-7.317-5.693-13.008-13.012-13.008zM117.107 0h-6.506v15.854h24.398L117.107 0zM.813 89.43h16.265s.813-24.39 24.397-24.39c17.485 0 20.331 24.39 20.331 24.39h40.663V0H0l.813 89.43zm153.703-15.446c-7.319 0-13.012 5.69-13.012 13.008 0 7.317 5.693 13.008 13.012 13.008 7.32 0 13.012-5.691 13.012-13.008 0-7.317-6.099-13.008-13.012-13.008zm-15.451-53.659h-28.464v69.106h24.398s-3.253-20.325 20.331-20.325c17.891 0 17.484 20.325 17.484 20.325h15.045l.814-30.488-49.608-38.618zm-4.066 52.846h-16.265v-8.13h16.265v8.13zm-1.627-14.635l-16.265-9.755V26.016h16.265l42.289 32.52h-42.289z" fill="#fff" fill-opacity=".4"/></svg>