<svg width="140" height="108" fill="none" xmlns="http://www.w3.org/2000/svg"><path d="M122.909.729H17.119C7.677.729 0 8.405 0 17.849V90.15c0 9.444 7.676 17.12 17.12 17.12h105.76c9.444 0 17.12-7.676 17.12-17.12V17.879c.029-9.444-7.647-17.15-17.091-17.15zm9.299 89.422c0 5.128-4.172 9.3-9.299 9.3H17.119c-5.126 0-9.298-4.172-9.298-9.3V17.879c0-5.128 4.172-9.299 9.299-9.299h105.76c5.127 0 9.299 4.171 9.299 9.299V90.15h.029z" fill="#fff" fill-opacity=".4"/><path d="M88.293 53.102l34.24-30.705a3.93 3.93 0 00.289-5.533 3.93 3.93 0 00-5.533-.29l-47.217 42.38-9.211-8.227c-.03-.03-.058-.058-.058-.087a5.786 5.786 0 00-.637-.55L22.681 16.544a3.905 3.905 0 00-5.533.319 3.905 3.905 0 00.318 5.532l34.646 30.967-34.5 32.299a3.926 3.926 0 00-.174 5.532 4 4 0 002.867 1.246 3.92 3.92 0 002.665-1.043l35.022-32.762 9.501 8.487a3.906 3.906 0 005.215-.029l9.761-8.748 34.819 33.081a3.889 3.889 0 002.694 1.072 3.906 3.906 0 002.839-1.217c1.478-1.564 1.42-4.055-.145-5.533L88.293 53.102z" fill="#fff" fill-opacity=".4"/></svg>